<?xml version="1.0" encoding="UTF-8"?>
<svg xmlns="http://www.w3.org/2000/svg" xmlns:xlink="http://www.w3.org/1999/xlink" width="16" height="16" viewBox="0 0 16 16" version="1.1">
<g id="surface1">
<path style=" stroke:none;fill-rule:nonzero;fill:rgb(25.882353%,25.882353%,25.882353%);fill-opacity:1;" d="M 10.167969 0 C 9.105469 0 8.070312 0.304688 7.179688 0.878906 C 6.289062 1.453125 5.585938 2.273438 5.148438 3.242188 C 4.714844 4.207031 4.566406 5.277344 4.726562 6.328125 C 4.886719 7.375 5.34375 8.351562 6.046875 9.148438 L 0.667969 15.253906 L 1.414062 15.921875 L 6.78125 9.839844 C 7.46875 10.378906 8.28125 10.746094 9.140625 10.910156 C 10 11.074219 10.886719 11.027344 11.730469 10.78125 C 12.570312 10.53125 13.335938 10.085938 13.96875 9.480469 C 14.601562 8.875 15.082031 8.125 15.367188 7.296875 C 15.652344 6.46875 15.734375 5.585938 15.609375 4.71875 C 15.484375 3.851562 15.152344 3.027344 14.644531 2.3125 C 14.136719 1.597656 13.464844 1.019531 12.683594 0.617188 C 11.90625 0.214844 11.042969 0.0078125 10.167969 0.0078125 Z M 10.167969 10 C 9.277344 10 8.40625 9.734375 7.667969 9.242188 C 6.925781 8.746094 6.351562 8.042969 6.007812 7.222656 C 5.667969 6.398438 5.578125 5.496094 5.753906 4.621094 C 5.925781 3.75 6.355469 2.949219 6.984375 2.316406 C 7.613281 1.6875 8.414062 1.261719 9.289062 1.085938 C 10.160156 0.914062 11.066406 1 11.890625 1.34375 C 12.710938 1.683594 13.414062 2.261719 13.910156 3 C 14.402344 3.738281 14.667969 4.609375 14.667969 5.5 C 14.667969 6.695312 14.191406 7.839844 13.347656 8.683594 C 12.503906 9.527344 11.359375 10 10.167969 10 Z M 10.167969 10 "/>
</g>
</svg>
