<?xml version="1.0" encoding="UTF-8"?>
<svg xmlns="http://www.w3.org/2000/svg" xmlns:xlink="http://www.w3.org/1999/xlink" width="16pt" height="16pt" viewBox="0 0 16 16" version="1.1">
<g id="surface1">
<path style=" stroke:none;fill-rule:nonzero;fill:rgb(0%,0%,0%);fill-opacity:1;" d="M 11.925781 9.378906 C 12.035156 9.183594 12.132812 8.984375 12.21875 8.777344 C 12.546875 8 12.714844 7.175781 12.714844 6.324219 C 12.714844 5.472656 12.546875 4.644531 12.21875 3.867188 C 11.902344 3.113281 11.445312 2.441406 10.867188 1.863281 C 10.289062 1.28125 9.613281 0.828125 8.863281 0.507812 C 8.082031 0.179688 7.257812 0.0117188 6.40625 0.0117188 C 5.554688 0.0117188 4.726562 0.179688 3.949219 0.511719 C 3.199219 0.828125 2.523438 1.28125 1.945312 1.863281 C 1.367188 2.441406 0.910156 3.113281 0.59375 3.867188 C 0.261719 4.644531 0.0976562 5.472656 0.0976562 6.324219 C 0.0976562 7.175781 0.261719 8 0.59375 8.777344 C 0.910156 9.53125 1.363281 10.207031 1.945312 10.785156 C 2.523438 11.363281 3.199219 11.816406 3.949219 12.136719 C 4.726562 12.464844 5.554688 12.632812 6.40625 12.632812 C 7.257812 12.632812 8.082031 12.464844 8.863281 12.136719 C 8.992188 12.082031 9.121094 12.019531 9.246094 11.957031 L 12.78125 15.492188 C 13.09375 15.804688 13.511719 15.980469 13.953125 15.980469 C 14.398438 15.980469 14.8125 15.804688 15.125 15.492188 L 15.410156 15.207031 C 16.058594 14.5625 16.058594 13.511719 15.410156 12.863281 Z M 9.421875 10.5 C 9.101562 10.734375 8.75 10.933594 8.375 11.085938 C 7.769531 11.335938 7.101562 11.476562 6.40625 11.476562 C 3.558594 11.476562 1.253906 9.167969 1.253906 6.324219 C 1.253906 3.476562 3.558594 1.167969 6.40625 1.167969 C 9.25 1.167969 11.558594 3.476562 11.558594 6.324219 C 11.558594 7.109375 11.382812 7.855469 11.066406 8.519531 C 10.898438 8.882812 10.6875 9.21875 10.441406 9.527344 C 10.148438 9.898438 9.804688 10.222656 9.421875 10.5 Z M 14.59375 14.390625 L 14.308594 14.675781 C 14.210938 14.773438 14.082031 14.824219 13.953125 14.824219 C 13.824219 14.824219 13.695312 14.773438 13.597656 14.675781 L 10.25 11.328125 C 10.464844 11.160156 10.671875 10.980469 10.867188 10.785156 C 11.007812 10.644531 11.136719 10.5 11.261719 10.351562 L 14.59375 13.679688 C 14.789062 13.875 14.789062 14.195312 14.59375 14.390625 Z M 14.59375 14.390625 "/>
<path style=" stroke:none;fill-rule:nonzero;fill:rgb(0%,0%,0%);fill-opacity:1;" d="M 13.953125 15.992188 C 13.507812 15.992188 13.085938 15.816406 12.773438 15.503906 L 9.242188 11.972656 C 9.117188 12.039062 8.992188 12.097656 8.867188 12.148438 C 8.085938 12.476562 7.257812 12.644531 6.40625 12.644531 C 5.550781 12.644531 4.722656 12.476562 3.945312 12.148438 C 3.191406 11.828125 2.515625 11.375 1.933594 10.792969 C 1.355469 10.214844 0.898438 9.539062 0.582031 8.785156 C 0.25 8.003906 0.0820312 7.175781 0.0820312 6.324219 C 0.0820312 5.46875 0.25 4.640625 0.582031 3.863281 C 0.898438 3.109375 1.355469 2.433594 1.933594 1.851562 C 2.515625 1.273438 3.191406 0.816406 3.945312 0.496094 C 4.722656 0.167969 5.550781 0 6.40625 0 C 7.257812 0 8.085938 0.167969 8.867188 0.496094 C 9.621094 0.816406 10.296875 1.273438 10.875 1.851562 C 11.457031 2.433594 11.914062 3.109375 12.230469 3.863281 C 12.5625 4.640625 12.730469 5.46875 12.730469 6.324219 C 12.730469 7.175781 12.5625 8.003906 12.230469 8.785156 C 12.148438 8.984375 12.050781 9.183594 11.941406 9.375 L 15.421875 12.855469 C 16.074219 13.503906 16.074219 14.566406 15.421875 15.21875 L 15.136719 15.503906 C 14.820312 15.816406 14.398438 15.992188 13.953125 15.992188 Z M 9.25 11.941406 L 12.789062 15.484375 C 13.101562 15.792969 13.515625 15.964844 13.953125 15.964844 C 14.394531 15.964844 14.804688 15.792969 15.117188 15.484375 L 15.402344 15.199219 C 16.042969 14.558594 16.042969 13.515625 15.402344 12.871094 L 11.910156 9.382812 L 11.914062 9.371094 C 12.023438 9.175781 12.121094 8.976562 12.207031 8.773438 C 12.535156 7.996094 12.703125 7.171875 12.703125 6.324219 C 12.703125 5.472656 12.535156 4.648438 12.207031 3.871094 C 11.890625 3.121094 11.433594 2.449219 10.859375 1.871094 C 10.28125 1.292969 9.605469 0.839844 8.855469 0.523438 C 8.078125 0.195312 7.253906 0.0273438 6.40625 0.0273438 C 5.554688 0.0273438 4.730469 0.195312 3.953125 0.523438 C 3.203125 0.839844 2.53125 1.292969 1.953125 1.871094 C 1.375 2.449219 0.921875 3.121094 0.605469 3.871094 C 0.277344 4.648438 0.109375 5.472656 0.109375 6.324219 C 0.109375 7.171875 0.277344 7.996094 0.605469 8.773438 C 0.921875 9.523438 1.375 10.195312 1.953125 10.773438 C 2.53125 11.351562 3.203125 11.804688 3.953125 12.125 C 4.730469 12.453125 5.554688 12.617188 6.40625 12.617188 C 7.253906 12.617188 8.078125 12.453125 8.855469 12.125 C 8.984375 12.070312 9.113281 12.011719 9.238281 11.945312 Z M 13.953125 14.835938 C 13.816406 14.835938 13.6875 14.78125 13.589844 14.683594 L 10.230469 11.324219 L 10.242188 11.316406 C 10.457031 11.148438 10.664062 10.96875 10.859375 10.773438 C 10.996094 10.636719 11.128906 10.492188 11.253906 10.339844 L 11.261719 10.328125 L 14.601562 13.671875 C 14.804688 13.871094 14.804688 14.199219 14.601562 14.398438 L 14.316406 14.683594 C 14.222656 14.78125 14.089844 14.835938 13.953125 14.835938 Z M 10.269531 11.328125 L 13.609375 14.667969 C 13.699219 14.757812 13.824219 14.808594 13.953125 14.808594 C 14.085938 14.808594 14.207031 14.757812 14.300781 14.667969 L 14.585938 14.382812 C 14.773438 14.191406 14.773438 13.878906 14.585938 13.691406 L 11.265625 10.371094 C 11.140625 10.515625 11.011719 10.660156 10.875 10.792969 C 10.6875 10.984375 10.484375 11.164062 10.269531 11.328125 Z M 6.40625 11.488281 C 3.554688 11.488281 1.238281 9.171875 1.238281 6.324219 C 1.238281 3.472656 3.554688 1.15625 6.40625 1.15625 C 9.253906 1.15625 11.574219 3.472656 11.574219 6.324219 C 11.574219 7.09375 11.40625 7.835938 11.082031 8.527344 C 10.910156 8.886719 10.699219 9.226562 10.453125 9.535156 C 10.15625 9.90625 9.8125 10.234375 9.429688 10.511719 C 9.105469 10.746094 8.75 10.945312 8.378906 11.097656 C 7.753906 11.359375 7.089844 11.488281 6.40625 11.488281 Z M 6.40625 1.183594 C 3.570312 1.183594 1.265625 3.488281 1.265625 6.324219 C 1.265625 9.15625 3.570312 11.464844 6.40625 11.464844 C 7.085938 11.464844 7.746094 11.332031 8.371094 11.074219 C 8.738281 10.921875 9.089844 10.726562 9.414062 10.488281 C 9.796875 10.214844 10.136719 9.886719 10.429688 9.519531 C 10.675781 9.210938 10.886719 8.871094 11.054688 8.515625 C 11.382812 7.828125 11.546875 7.089844 11.546875 6.324219 C 11.546875 3.488281 9.238281 1.183594 6.40625 1.183594 Z M 6.40625 1.183594 "/>
</g>
</svg>
